<?xml version="1.0" encoding="UTF-8"?><!DOCTYPE svg PUBLIC "-//W3C//DTD SVG 1.1//EN" "http://www.w3.org/Graphics/SVG/1.1/DTD/svg11.dtd"><svg version="1.1" width="128" height="128" viewBox="0 0 267 267" xmlns="http://www.w3.org/2000/svg"><path d="M125 23.3c-.3.3-2.6.7-5.1 1-26.2 3.1-53.5 20.5-69.5 44.3-11.6 17.3-16.4 32.7-17 53.9-.5 20.9 2 32.4 11 50.5 4.7 9.4 5.2 10.9 4.4 14-.7 2.6-5.2 7.9-18.3 21-9.5 9.6-17.9 18.6-18.5 20-1.9 3.6-1.3 10.7 1.2 15.1 2.2 3.9 8.4 7.9 12.4 7.9 6.8 0 9.7-2.1 27.2-19.6 22.3-22.2 21-21.7 36.4-14 15.8 7.9 27.4 10.8 44.3 11 14.7.1 19.3-.4 30.2-3.5 23.4-6.5 44.8-22.2 58.4-42.9 11-16.7 16.3-35.1 16.3-56 0-13.5-2.5-28.3-6-35.2-3.3-6.4-11.1-7.8-16.6-2.9-2.7 2.4-3.2 3.5-3.1 7.2 0 2.4.8 6.9 1.6 9.9.9 3 1.9 7 2.2 8.8.7 4.4.8 21 .1 24.2-.4 1.4-.9 3.8-1.2 5.4-4.4 24.5-25.5 49-50.3 58.5-7.8 3-10.4 3.6-20.1 4.9-37.6 5.1-76.4-20.6-87.4-57.8-2.4-8.1-3.1-14.3-2.9-25.5.6-35.7 25.5-67.2 60.9-76.6 12-3.2 29.9-3 41.7.5 4.8 1.4 11.5 4 14.7 5.6 9.4 4.8 15.6 3.6 18.6-3.5 2.7-6.5-.1-11.2-9.4-15.9-13.8-6.9-28.3-10.2-45.6-10.5-5.6-.1-10.4 0-10.6.2z"/><path d="M211.5 62.8c-8.3 3.7-19.3 10.3-29.7 17.9l-8.7 6.2-2.8-2.3c-4.9-4.1-15.6-9.5-21.9-10.9-3.6-.9-9.9-1.4-15-1.2-16.8.5-31.1 8.3-41.1 22.2-24.3 34-1.5 82 40.2 84.6 25.3 1.6 48.8-15.4 55.5-40.3.7-2.5 1.3-8.6 1.3-13.5 0-8.5-1.6-15.4-5.7-24.7-1.1-2.4 11.8-14.8 26.3-25.3 13.3-9.6 15.6-11.8 14.8-14-.9-2.3-6.4-1.8-13.2 1.3z"/></svg>